<svg width="342" height="85" viewBox="0 0 342 85" fill="none" xmlns="http://www.w3.org/2000/svg">
<path d="M64.6699 3.58901C80.1168 7.85543 82.8835 11.5453 75.8517 18.6945C69.9726 24.5752 69.5114 24.6905 62.7102 21.1159C36.312 7.50951 9.33735 29.4182 20.8649 54.9014C26.744 67.816 57.5227 73.6967 62.4796 62.8577C66.9754 53.0564 63.7477 48.9053 53.027 50.635C42.4216 52.2493 42.1911 51.7881 48.6465 41.295C53.1423 33.9152 54.0645 33.5693 66.8601 33.5693H80.2321L80.1169 55.4779V77.3866L68.474 80.8459C30.894 92.0308 0 74.7345 0 42.5634C0 12.0065 29.9718 -6.09692 64.6699 3.58901ZM108.359 42.794V84.3051H99.1374H89.9153V42.794V1.28284H99.1374H108.359V42.794ZM196.891 4.16556C188.361 18.8098 186.517 20.0782 174.413 19.3863L162.539 18.8098L162.309 50.9809L161.963 83.152L153.663 83.8439L145.363 84.5357L144.787 51.6727L144.095 18.9251L129.685 19.5016L115.276 20.0782V10.6228V1.28284H156.891C189.629 1.28284 198.159 1.85938 196.891 4.16556ZM242.31 41.0643C252.915 62.973 262.022 81.653 262.483 82.5755C262.829 83.498 258.564 84.3051 252.915 84.3051C243.002 84.3051 242.425 83.8439 238.967 75.311L235.394 66.317L221.445 67.5854C205.998 68.9691 205.076 67.9313 211.186 56.2851C214.067 50.7503 215.912 49.4819 220.408 50.289C227.094 51.5574 227.209 50.7503 221.215 36.7979C215.566 23.768 216.027 23.3068 200.695 57.2076L188.361 84.3051H179.485C168.072 84.3051 167.381 87.3031 189.629 41.1796C215.912 -13.7073 215.566 -13.7073 242.31 41.0643ZM334.992 10.7382L328.652 20.3088L307.326 19.1557L285.884 18.1179V25.7283V33.454L308.94 34.0305L332.11 34.7224L326 43.6011L319.891 52.5952L302.945 51.4421L285.884 50.4043V67.3547V84.3051H276.662H267.44V42.794V1.28284H304.329H341.332L334.992 10.7382Z" fill="#FDFDFD"/>
</svg>
